<?xml version="1.0" standalone="no"?>
<!DOCTYPE svg PUBLIC "-//W3C//DTD SVG 20010904//EN"
 "http://www.w3.org/TR/2001/REC-SVG-20010904/DTD/svg10.dtd">
<svg version="1.0" xmlns="http://www.w3.org/2000/svg"
 width="2048.000000pt" height="2048.000000pt" viewBox="0 0 2048.000000 2048.000000"
 preserveAspectRatio="xMidYMid meet">

<g transform="translate(0.000000,2048.000000) scale(0.100000,-0.100000)"
fill="#000000" stroke="none">
<path d="M4520 20473 c-596 -42 -1029 -136 -1531 -334 -893 -352 -1658 -972
-2196 -1779 -389 -585 -652 -1286 -747 -1995 -42 -317 -41 -93 -41 -6530 l0
-6140 23 -165 c69 -501 187 -891 395 -1306 568 -1133 1671 -1966 2871 -2169
351 -59 -133 -56 7026 -52 6072 3 6554 4 6665 20 793 111 1420 386 2035 890
134 111 456 439 574 587 339 425 589 901 731 1391 46 162 110 477 132 659 17
138 18 452 18 6310 0 4979 -2 6190 -13 6295 -101 1010 -483 1920 -1119 2666
-123 144 -364 385 -512 511 -683 585 -1501 954 -2421 1093 -349 52 97 49
-6115 50 -3151 1 -5750 0 -5775 -2z m3394 -3599 c579 -57 1214 -289 1756 -642
163 -106 357 -253 485 -369 61 -55 513 -507 1005 -1004 492 -497 1488 -1500
2213 -2228 725 -728 1325 -1334 1333 -1347 11 -16 13 -28 5 -41 -5 -10 -194
-202 -420 -427 l-410 -409 -118 110 c-65 61 -1083 1078 -2262 2259 -1180 1182
-2172 2173 -2205 2203 -558 495 -1332 731 -2082 635 -541 -69 -1031 -288
-1453 -650 -552 -474 -896 -1138 -971 -1878 -16 -155 -8 -553 15 -696 55 -358
166 -688 320 -960 l66 -115 -423 -422 c-233 -232 -426 -423 -430 -423 -18 0
-217 338 -315 535 -457 930 -545 2004 -248 3041 90 314 278 733 449 1002 92
145 253 362 361 487 262 302 655 624 1010 827 746 425 1502 592 2319 512z
m5401 5 c251 -22 508 -75 774 -161 752 -243 1428 -705 1907 -1304 481 -601
764 -1298 860 -2119 25 -215 26 -712 0 -920 -97 -808 -380 -1504 -844 -2075
-128 -157 -5386 -5410 -5587 -5580 -362 -308 -760 -553 -1220 -753 -400 -173
-782 -286 -1164 -344 -224 -34 -666 -43 -898 -19 -823 87 -1574 421 -2213 983
-550 484 -976 1151 -1179 1847 -149 508 -188 1052 -116 1606 77 581 288 1142
617 1632 179 268 216 307 1597 1691 724 726 1744 1748 2266 2273 523 525 957
955 965 954 8 0 206 -192 440 -426 l425 -426 -1620 -1615 c-891 -888 -1856
-1847 -2145 -2129 -573 -561 -780 -775 -894 -923 -341 -445 -517 -979 -517
-1571 0 -555 157 -1066 469 -1520 298 -435 726 -793 1184 -989 394 -169 768
-241 1188 -228 273 8 481 48 779 147 487 163 886 372 1226 645 124 99 5305
5277 5449 5445 413 484 638 1115 639 1795 1 472 -89 865 -293 1280 -213 434
-565 837 -958 1096 -367 243 -724 380 -1142 440 -180 26 -498 31 -665 10 -391
-48 -745 -170 -1088 -375 l-109 -65 -435 439 c-239 241 -435 442 -436 446 -6
25 421 287 665 409 672 334 1347 466 2073 404z m-2928 -4256 c767 -1079 1249
-1977 1385 -2586 20 -87 23 -130 23 -297 0 -168 -3 -210 -23 -299 -108 -482
-417 -881 -843 -1088 -584 -284 -1296 -177 -1761 265 -234 224 -388 499 -459
824 -26 120 -36 361 -20 483 54 408 327 1022 789 1775 131 214 433 669 588
885 167 232 168 234 175 235 3 0 68 -89 146 -197z m-3130 -3482 c362 -362
1112 -1113 1666 -1668 l1009 -1010 -213 -217 c-117 -119 -253 -252 -303 -295
-113 -96 -335 -263 -347 -259 -4 2 -749 743 -1654 1647 -1613 1612 -1645 1644
-1629 1665 26 33 798 795 806 796 3 0 303 -296 665 -659z m9016 474 c94 -150
230 -414 306 -595 132 -311 227 -668 277 -1045 21 -156 30 -611 14 -787 -51
-603 -235 -1166 -549 -1685 -273 -449 -664 -870 -1096 -1178 -528 -377 -1091
-607 -1715 -702 -224 -34 -667 -43 -897 -19 -434 46 -836 154 -1303 351 -159
67 -467 220 -597 296 l-92 55 428 428 429 429 124 -56 c585 -265 984 -359
1458 -344 277 9 494 48 762 137 819 272 1500 951 1758 1756 184 574 178 1167
-16 1737 -66 193 -125 319 -248 532 l-18 30 424 423 423 422 23 -27 c13 -16
60 -86 105 -158z"/>
</g>
</svg>
